# xmcd
#
# Track frame offsets:
#	180
#	22064
#	41519
#	55981
#	77856
#	96973
#	114385
#	131904
#	142934
#	160871
#	178885
#	184115
#	185298
#	206028
#
# Disc length: 3038 seconds
#
# Revision: 1
# Processed by: cddbd v1.5.1PL0 Copyright (c) Steve Scherf et al.
# Submitted via: EasyCDDAExtractor 6.0.0.1
#
DISCID=c70bdc0e
DTITLE=Cheikh Sidi Bémol
DYEAR=1998
DGENRE=Fusion
TTITLE0=Tawassoul
TTITLE1=Ahlil
TTITLE2=Hiya
TTITLE3=Wach Eddani
TTITLE4=Timqverth
TTITLE5=Safina
TTITLE6=Ballade Apatride
TTITLE7=Bnat el Luxe
TTITLE8=Blues Boozenzel
TTITLE9=Serqou
TTITLE10=Le Bal des Voleurs
TTITLE11=Version Saoule
TTITLE12=La Faute Diali
TTITLE13=Fe Trig
EXTD=
EXTT0=
EXTT1=
EXTT2=
EXTT3=
EXTT4=
EXTT5=
EXTT6=
EXTT7=
EXTT8=
EXTT9=
EXTT10=
EXTT11=
EXTT12=
EXTT13=
PLAYORDER=
